<?xml version="1.0" standalone="no"?>
<!DOCTYPE svg PUBLIC "-//W3C//DTD SVG 20010904//EN"
 "http://www.w3.org/TR/2001/REC-SVG-20010904/DTD/svg10.dtd">
<svg version="1.0" xmlns="http://www.w3.org/2000/svg"
 width="700.000000pt" height="700.000000pt" viewBox="0 0 700.000000 700.000000"
 preserveAspectRatio="xMidYMid meet">
<metadata>
Created by potrace 1.14, written by Peter Selinger 2001-2017
</metadata>
<g transform="translate(0.000000,700.000000) scale(0.100000,-0.100000)"
fill="#000000" stroke="none">
<path d="M3358 6525 c-2 -2 -41 -6 -88 -9 -76 -6 -105 -9 -175 -22 -11 -2 -47
-9 -80 -15 -117 -20 -309 -78 -447 -135 -472 -192 -871 -521 -1151 -949 -188
-288 -339 -681 -373 -970 -3 -22 -7 -47 -9 -55 -18 -63 -25 -428 -11 -555 4
-38 9 -79 10 -90 17 -156 106 -503 156 -612 11 -24 20 -47 20 -53 0 -6 9 -29
19 -53 10 -23 25 -58 32 -77 35 -88 181 -370 261 -503 279 -466 616 -887 1082
-1352 279 -278 430 -416 537 -491 102 -72 241 -112 371 -108 92 3 121 8 198
33 119 39 158 68 404 291 80 72 466 458 536 535 147 162 237 267 375 437 7 9
46 61 87 115 40 54 76 100 79 103 16 13 224 329 296 450 92 156 234 442 288
580 87 222 162 490 180 640 3 25 8 56 10 70 25 138 25 511 0 642 -3 12 -7 40
-11 63 -81 552 -402 1126 -833 1488 -47 40 -88 74 -91 78 -3 3 -43 32 -90 65
-365 256 -759 404 -1195 450 -60 6 -382 13 -387 9z m-1642 -2279 c27 -4 61 -9
77 -11 15 -3 42 -7 60 -10 17 -3 43 -8 57 -10 14 -3 35 -7 47 -9 62 -12 189
-53 278 -89 248 -101 434 -250 568 -454 123 -189 203 -413 242 -677 13 -87 15
-105 20 -231 8 -201 -15 -229 -184 -228 -113 1 -197 9 -311 28 -109 19 -116
21 -170 35 -25 7 -52 13 -60 15 -42 9 -218 79 -288 115 -320 164 -533 440
-640 830 -26 93 -33 126 -51 245 -18 115 -22 165 -22 272 0 118 12 150 64 180
20 10 228 10 313 -1z m3856 6 c29 -2 70 -35 82 -67 9 -23 9 -200 0 -277 -5
-52 -28 -198 -39 -248 -3 -14 -8 -38 -10 -53 -12 -66 -71 -229 -115 -322 -128
-264 -306 -447 -560 -575 -161 -81 -437 -156 -646 -175 -96 -9 -259 -7 -286 4
-49 19 -63 55 -64 161 -1 101 15 278 31 355 3 11 7 31 9 45 9 56 48 194 75
269 165 444 485 717 976 831 123 28 122 28 190 36 33 3 80 9 104 13 40 5 181
7 253 3z"/>
</g>
</svg>
